<svg width="67" height="80" viewBox="0 0 67 32" fill="none" xmlns="http://www.w3.org/2000/svg">
<path d="M36.0156 21.4219H29.4375V10H36.0156V11.9844H31.8594V14.4922H35.7266V16.4766H31.8594V19.4219H36.0156V21.4219Z" fill="white"/>
<path d="M48.6406 21.4219H45.875L43.2188 17.1016L40.5625 21.4219H37.9688L41.7578 15.5312L38.2109 10H40.8828L43.3438 14.1094L45.7578 10H48.3672L44.7812 15.6641L48.6406 21.4219Z" fill="white"/>
<path d="M51.0781 21.4219V10H53.5V21.4219H51.0781Z" fill="white"/>
<path d="M61.7812 21.4219H59.3594V12.0156H56.2578V10H64.8828V12.0156H61.7812V21.4219Z" fill="white"/>
<path d="M19 15H7.82998L12.71 10.12C13.1 9.72997 13.1 9.08997 12.71 8.69997C12.32 8.30997 11.69 8.30997 11.3 8.69997L4.70998 15.29C4.31998 15.68 4.31998 16.31 4.70998 16.7L11.3 23.29C11.69 23.68 12.32 23.68 12.71 23.29C13.1 22.9 13.1 22.27 12.71 21.88L7.82998 17H19C19.55 17 20 16.55 20 16C20 15.45 19.55 15 19 15Z" fill="white"/>
</svg>
